HIERARCHY
ROOT Hips
{
    OFFSET 0.000000 0.000000 0.000000
    CHANNELS 6 Xposition Yposition Zposition Zrotation Xrotation Yrotation
    JOINT Spine
    {
        OFFSET -0.000000 7.236184 0.000000
        CHANNELS 3 Zrotation Xrotation Yrotation
        JOINT Spine1
        {
            OFFSET -0.000000 20.420147 0.000000
            CHANNELS 3 Zrotation Xrotation Yrotation
            JOINT Neck
            {
                OFFSET -0.000000 20.336288 1.848754
                CHANNELS 3 Zrotation Xrotation Yrotation
                JOINT Head
                {
                    OFFSET -0.000000 12.354461 -1.764923
                    CHANNELS 3 Zrotation Xrotation Yrotation
                    End Site
                    {
                        OFFSET -0.000000 22.061537 0.000000
                    }
                }
            }
            JOINT LeftShoulder
            {
                OFFSET 3.573296 18.396038 -0.314103
                CHANNELS 3 Zrotation Xrotation Yrotation
                JOINT LeftArm
                {
                    OFFSET 10.880760 0.000000 0.000000
                    CHANNELS 3 Zrotation Xrotation Yrotation
                    JOINT LeftForeArm
                    {
                        OFFSET 27.185530 0.000000 0.000000
                        CHANNELS 3 Zrotation Xrotation Yrotation
                        JOINT LeftHand
                        {
                            OFFSET 27.825975 0.000000 0.000000
                            CHANNELS 3 Zrotation Xrotation Yrotation
                            End Site
                            {
                                OFFSET 13.236923 0.000000 0.000000
                            }
                        }
                    }
                }
            }
            JOINT RightShoulder
            {
                OFFSET -3.474926 18.396038 -0.314103
                CHANNELS 3 Zrotation Xrotation Yrotation
                JOINT RightArm
                {
                    OFFSET -10.880760 0.000000 0.000000
                    CHANNELS 3 Zrotation Xrotation Yrotation
                    JOINT RightForeArm
                    {
                        OFFSET -27.185530 0.000000 0.000000
                        CHANNELS 3 Zrotation Xrotation Yrotation
                        JOINT RightHand
                        {
                            OFFSET -27.825975 0.000000 0.000000
                            CHANNELS 3 Zrotation Xrotation Yrotation
                            End Site
                            {
                                OFFSET -13.236923 0.000000 0.000000
                            }
                        }
                    }
                }
            }
        }
    }
    JOINT LeftUpLeg
    {
        OFFSET 8.824615 0.000000 0.000000
        CHANNELS 3 Zrotation Xrotation Yrotation
        JOINT LeftLeg
        {
            OFFSET -0.000000 -35.111282 0.000000
            CHANNELS 3 Zrotation Xrotation Yrotation
            JOINT LeftFoot
            {
                OFFSET -0.000000 -42.324711 0.000000
                CHANNELS 3 Zrotation Xrotation Yrotation
                JOINT LeftToeBase
                {
                    OFFSET -0.000000 -5.735999 13.236923
                    CHANNELS 3 Zrotation Xrotation Yrotation
                    End Site
                    {
                        OFFSET -0.000000 0.000000 3.529846
                    }
                }
            }
        }
    }
    JOINT RightUpLeg
    {
        OFFSET -8.824615 0.000000 0.000000
        CHANNELS 3 Zrotation Xrotation Yrotation
        JOINT RightLeg
        {
            OFFSET -0.000000 -35.111282 0.000000
            CHANNELS 3 Zrotation Xrotation Yrotation
            JOINT RightFoot
            {
                OFFSET -0.000000 -42.324711 0.000000
                CHANNELS 3 Zrotation Xrotation Yrotation
                JOINT RightToeBase
                {
                    OFFSET -0.000000 -5.735999 13.236923
                    CHANNELS 3 Zrotation Xrotation Yrotation
                    End Site
                    {
                        OFFSET -0.000000 0.000000 3.529846
                    }
                }
            }
        }
    }
}
MOTION
Frames:    11
Frame Time:    0.008333
-3.734037    80.968674    95.042580    0.555872    -6.107075    -176.716232    -1.433284    -14.651155    0.800238    0.053707    6.134083    0.981653    1.688882    4.168731    -3.936945    7.564759    1.120844    -3.279233    0.934216    17.856644    -3.206597    -43.581070    47.892101    -40.660748    -2.941241    -4.422931    -17.413536    17.742771    -4.476680    2.540673    6.534546    19.584166    -3.367155    36.716827    47.526340    43.588512    0.748503    -5.013649    17.320192    -15.297379    -4.630447    -3.711224    3.066148    -2.697252    -0.704941    -3.507215    5.306501    0.931454    0.750509    -7.748504    -7.373187    -0.173400    -0.038489    0.192222    -4.538113    -1.712602    1.942760    3.300733    4.995991    6.237033    -1.224655    -7.440233    -13.350667    -0.235569    0.088355    0.254756    
-3.710164    80.976418    95.091454    0.550125    -6.149790    -176.676697    -1.447904    -14.631121    0.794782    0.093296    6.138325    0.975684    1.646387    4.148317    -3.941609    7.577161    1.084413    -3.275614    0.879033    17.843185    -3.224176    -43.524910    47.895794    -40.675140    -2.935814    -4.417824    -17.413902    17.754944    -4.470139    2.542902    6.520242    19.578407    -3.369532    36.728691    47.508301    43.580528    0.742851    -5.010355    17.313055    -15.306950    -4.626482    -3.707070    3.079053    -2.769258    -0.721749    -3.526365    5.262128    0.874636    0.761333    -7.675539    -7.328929    -0.174878    -0.037421    0.193859    -4.542054    -1.770781    1.946308    3.320644    4.968969    6.210587    -1.227051    -7.411219    -13.364875    -0.237860    0.099785    0.257229    
-3.686551    80.984077    95.140121    0.544454    -6.191905    -176.637482    -1.461206    -14.611030    0.789586    0.129513    6.142731    0.969937    1.607497    4.128560    -3.945824    7.587962    1.047717    -3.272115    0.828190    17.831100    -3.241034    -43.469330    47.899017    -40.692551    -2.930497    -4.412822    -17.413830    17.766953    -4.463777    2.544668    6.506768    19.573175    -3.371273    36.740055    47.490463    43.573292    0.737438    -5.007616    17.306684    -15.316552    -4.623044    -3.703618    3.091721    -2.841020    -0.737726    -3.545203    5.219071    0.818926    0.771646    -7.603554    -7.286306    -0.176542    -0.035815    0.195704    -4.546512    -1.828444    1.951182    3.341294    4.942314    6.185182    -1.228195    -7.382584    -13.381034    -0.240113    0.110710    0.259662    
-3.663245    80.991707    95.188942    0.538402    -6.233982    -176.598404    -1.472873    -14.591283    0.784687    0.160239    6.147358    0.964705    1.574204    4.110287    -3.949400    7.596649    1.009699    -3.268706    0.784237    17.821327    -3.257313    -43.414463    47.901463    -40.714817    -2.925131    -4.408105    -17.412880    17.778860    -4.457763    2.545893    6.495254    19.569078    -3.371983    36.749977    47.472744    43.567219    0.732342    -5.006032    17.301577    -15.325908    -4.620711    -3.700882    3.103566    -2.913585    -0.752754    -3.563494    5.178107    0.766397    0.780725    -7.532899    -7.247637    -0.178572    -0.033479    0.197953    -4.552142    -1.886377    1.957275    3.362778    4.916267    6.160929    -1.241012    -7.352706    -13.401283    -0.243088    0.123858    0.262874    
-3.640186    80.999290    95.237968    0.532450    -6.275296    -176.559357    -1.482095    -14.571319    0.780344    0.184695    6.152653    0.959952    1.547362    4.093118    -3.952189    7.602829    0.971060    -3.265481    0.748251    17.814049    -3.272798    -43.360241    47.903057    -40.743111    -2.919688    -4.403882    -17.411022    17.790392    -4.452300    2.546565    6.485463    19.566286    -3.371448    36.758839    47.454880    43.562634    0.727739    -5.005592    17.297764    -15.335431    -4.619510    -3.698969    3.114912    -2.986431    -0.766036    -3.580567    5.139933    0.718942    0.787879    -7.464216    -7.215773    -0.181144    -0.029762    0.200803    -4.558105    -1.943630    1.964237    3.384655    4.890064    6.136992    -1.242540    -7.323941    -13.421240    -0.245534    0.133802    0.265516    
-3.617489    81.006821    95.287086    0.526610    -6.315698    -176.520493    -1.488703    -14.551334    0.776528    0.202394    6.158739    0.955766    1.527317    4.077401    -3.954043    7.606486    0.931880    -3.262321    0.720651    17.809193    -3.287332    -43.306763    47.903965    -40.777294    -2.914198    -4.400306    -17.408491    17.801657    -4.447502    2.546880    6.477699    19.564947    -3.369627    36.766029    47.437157    43.559994    0.723625    -5.006543    17.295208    -15.344889    -4.619658    -3.697846    3.125412    -3.059339    -0.777169    -3.595636    5.105103    0.678962    0.792139    -7.398310    -7.193616    -0.184401    -0.023671    0.204411    -4.564054    -1.999831    1.970998    3.406069    4.863395    6.112652    -1.254508    -7.293356    -13.442101    -0.248827    0.146167    0.269072    
-3.595030    81.014351    95.336617    0.520801    -6.355475    -176.481613    -1.492905    -14.531218    0.773317    0.213834    6.165589    0.952169    1.513848    4.062953    -3.954854    7.607188    0.892274    -3.259178    0.700489    17.806376    -3.300835    -43.253815    47.904488    -40.817036    -2.908526    -4.397469    -17.405432    17.812832    -4.443398    2.547350    6.471778    19.564800    -3.366584    36.771702    47.419605    43.558990    0.720003    -5.008790    17.293770    -15.354048    -4.621133    -3.697180    3.134877    -3.132720    -0.785894    -3.608377    5.073366    0.646881    0.793253    -7.334940    -7.182063    -0.188499    -0.015384    0.208950    -4.569564    -2.055306    1.976247    3.426090    4.835855    6.086371    -1.261494    -7.262501    -13.458942    -0.252099    0.157298    0.272606    
-3.572690    81.021896    95.386711    0.515274    -6.394512    -176.442841    -1.494559    -14.510714    0.770734    0.219481    6.172997    0.949274    1.506379    4.049962    -3.954574    7.605228    0.852928    -3.255922    0.687329    17.805058    -3.313541    -43.201996    47.904831    -40.861187    -2.902690    -4.395396    -17.401991    17.824009    -4.439960    2.548210    6.467483    19.566236    -3.362322    36.775982    47.401829    43.559967    0.717124    -5.012142    17.292959    -15.362949    -4.623788    -3.696855    3.143438    -3.206563    -0.791440    -3.618377    5.044713    0.621521    0.791070    -7.274087    -7.180716    -0.193291    -0.004518    0.214258    -4.573816    -2.109972    1.978804    3.443833    4.806954    6.056529    -1.265509    -7.230663    -13.469092    -0.255418    0.167825    0.276191    
-3.550502    81.029427    95.437393    0.509835    -6.433136    -176.404480    -1.494028    -14.489759    0.768887    0.219997    6.180067    0.947033    1.503834    4.038653    -3.953162    7.601348    0.814656    -3.252320    0.679921    17.804985    -3.324840    -43.151192    47.905716    -40.908890    -2.896465    -4.394216    -17.398445    17.835194    -4.437236    2.549715    6.464525    19.569273    -3.356920    36.778896    47.384380    43.562672    0.714549    -5.016441    17.292597    -15.370785    -4.627459    -3.696797    3.150771    -3.281193    -0.793390    -3.625438    5.019311    0.600702    0.785910    -7.215879    -7.187524    -0.198487    0.008406    0.220013    -4.576469    -2.164359    1.976746    3.458019    4.776931    6.021954    -1.274731    -7.196780    -13.470347    -0.259439    0.180188    0.280535    
-3.528358    81.036934    95.488953    0.504230    -6.471731    -176.366592    -1.491719    -14.468208    0.767731    0.216008    6.186137    0.945467    1.505622    4.029395    -3.950475    7.595592    0.777976    -3.248233    0.677057    17.805605    -3.335013    -43.102539    47.907166    -40.958103    -2.889611    -4.393784    -17.394754    17.846060    -4.435119    2.551659    6.463198    19.573891    -3.350120    36.780666    47.366917    43.566380    0.712481    -5.021306    17.292370    -15.377456    -4.631770    -3.696979    3.156731    -3.357146    -0.791834    -3.629801    4.996989    0.581235    0.778412    -7.159962    -7.199087    -0.203584    0.022658    0.225657    -4.577250    -2.219026    1.968103    3.467597    4.745631    5.981572    -1.275593    -7.162246    -13.457758    -0.263404    0.191186    0.284818    
-3.506290    81.044350    95.540909    0.498962    -6.509458    -176.329575    -1.487547    -14.445692    0.767277    0.208442    6.190905    0.944527    1.510878    4.022287    -3.946532    7.588428    0.744037    -3.243585    0.677741    17.806555    -3.343719    -43.056366    47.909519    -41.007618    -2.882202    -4.394215    -17.391323    17.856462    -4.433746    2.553890    6.463061    19.580027    -3.342321    36.781010    47.350185    43.571468    0.710510    -5.026556    17.292130    -15.382281    -4.636497    -3.697451    3.162089    -3.433183    -0.786752    -3.631866    4.977713    0.561194    0.768927    -7.106627    -7.213109    -0.208077    0.037127    0.230630    -4.574708    -2.273062    1.950923    3.470735    4.713267    5.933870    -1.270944    -7.126856    -13.427826    -0.267546    0.202138    0.289292    
